PathFileType	4	(X/Y/Z)	C:\Github\FootballMatch-and-Movement-Analysis\output\test Exam_2026-03-06_135002_tvc2_Sports2D\test Exam_2026-03-06_135002_tvc2_Sports2D_px_person00.trc
DataRate	CameraRate	NumFrames	NumMarkers	Units	OrigDataRate	OrigDataStartFrame	OrigNumFrames
30.0	30.0	4	22	m	30.0	322	516
Frame#	Time	Hip			RHip			RKnee			RAnkle			RBigToe			RSmallToe			RHeel			LHip			LKnee			LAnkle			LBigToe			LSmallToe			LHeel			Neck			Head			Nose			RShoulder			RElbow			RWrist			LShoulder			LElbow			LWrist			
		X1	Y1	Z1	X2	Y2	Z2	X3	Y3	Z3	X4	Y4	Z4	X5	Y5	Z5	X6	Y6	Z6	X7	Y7	Z7	X8	Y8	Z8	X9	Y9	Z9	X10	Y10	Z10	X11	Y11	Z11	X12	Y12	Z12	X13	Y13	Z13	X14	Y14	Z14	X15	Y15	Z15	X16	Y16	Z16	X17	Y17	Z17	X18	Y18	Z18	X19	Y19	Z19	X20	Y20	Z20	X21	Y21	Z21	X22	Y22	Z22
322	10.754174757281554	310.50438532351745	677.3645853830617	0.0	272.806098683428	694.5370486488987	0.0	289.733476820223	855.2836321137156	0.0	306.6590566037309	1003.9872234711954	0.0	301.94797498401687	1065.0120063043482	0.0	282.76643904279547	1063.028388866008	0.0	319.5293064266258	1024.842870876702	0.0	353.2654955889353	671.7494473811496	0.0	363.11907287935855	786.9328575064045	0.0	389.47942072736174	959.7437959444078	0.0	398.60294225694594	995.0973134806864	0.0	423.51696858084716	996.0927793626834	0.0	387.23062975597384	994.3079899734689	0.0	265.5428555926498	441.2486022529638	0.0	242.3619016972513	335.7105263749984	0.0	249.13352403056035	394.92119366057534	0.0	200.2094894384532	499.28253072628905	0.0	149.87702004751807	587.3728551925686	0.0	215.20245261803058	640.5224157273815	0.0	348.9007809383918	468.2155328721982	0.0	435.75565387861263	526.1433923236146	0.0	406.7415416277031	604.7853151069977	0.0
323	10.78757281553398	310.54481293976704	676.4254037811576	0.0	272.87253673191856	690.7715041072631	0.0	290.5890209596838	851.927975183952	0.0	306.87017468823456	1004.0153439207793	0.0	302.0881192629236	1064.1807566325178	0.0	282.9054748922241	1061.984370784741	0.0	320.1474335770491	1025.173295689784	0.0	353.32149390707536	668.7422535389815	0.0	362.47639415096194	791.0792024057823	0.0	388.11838608810723	966.017614872238	0.0	398.2365869441726	1004.870205754913	0.0	423.69476904798603	1003.2365768466482	0.0	386.75647303291777	999.3214650918883	0.0	266.90115295013834	436.8967226806123	0.0	243.78419560766017	331.9770265159277	0.0	251.6641187595863	391.7119283704246	0.0	201.94027902497695	494.8233283050803	0.0	150.69886996653622	582.6640956384368	0.0	214.36930942167191	638.129659567599	0.0	349.9340907324457	464.80823057583734	0.0	436.92547286244707	523.230476931615	0.0	408.23896457057253	603.679892534758	0.0
324	10.820970873786408	310.32177017512623	676.3081682662057	0.0	272.47583417169625	688.1685299891566	0.0	290.11079301293614	850.199189270341	0.0	306.7927528581669	1005.4332626134724	0.0	300.18834453056945	1063.8084377484865	0.0	282.0590810997506	1062.1578698847918	0.0	320.7649567744513	1027.3488467537272	0.0	353.22005580789755	666.9155719698101	0.0	362.129722536085	795.4409332291094	0.0	387.2500806969464	972.6130767872629	0.0	398.66633957344277	1015.2516636699221	0.0	423.89307033647964	1011.6627569528199	0.0	386.0308269699098	1004.4832278110848	0.0	268.82938103187325	433.5791270129097	0.0	245.95316216626964	329.47970943132725	0.0	254.0426137082411	389.33339141994185	0.0	204.52347590497365	491.1303636961474	0.0	150.78825744207273	578.5659407064118	0.0	212.86062337782153	636.2321720841761	0.0	351.15963491032164	462.7200800661008	0.0	438.44862986087605	522.4815233285144	0.0	408.83193642711143	604.8333377113901	0.0
325	10.854368932038835	309.44935246968527	677.1041211266175	0.0	271.63078449789964	689.498539239273	0.0	289.2507783274292	851.2483767748954	0.0	306.71956856710267	1007.4919233872859	0.0	298.97163888315674	1063.661147991929	0.0	281.7019210871787	1062.4223635247583	0.0	321.3793613945828	1029.6369253502899	0.0	352.8216503733047	668.6656713440219	0.0	361.89661722908085	799.9255708882844	0.0	387.2161359037758	980.9226093460552	0.0	399.90113607550836	1026.6993338476811	0.0	424.27663198585236	1021.5629442254751	0.0	384.8141648434595	1011.5548384316226	0.0	270.76555789584165	432.71618983560006	0.0	249.26290350468986	329.11106485461494	0.0	256.2079627095977	387.97710327422004	0.0	206.97116512773022	488.8698966975454	0.0	150.8708463347223	576.8034498388673	0.0	211.90167706299616	634.574564537296	0.0	352.20232400705714	462.2388320547874	0.0	439.6668824467601	523.2866856813038	0.0	409.373669661775	607.6272656026508	0.0
